<?xml version="1.0" encoding="UTF-8"?>
<svg id="logo" xmlns="http://www.w3.org/2000/svg" viewBox="0 0 1000 1000">
  <defs>
    <style>
      .cls-1 {
        fill: #f9f9fa;
      }

      .cls-1, .cls-2, .cls-3 {
        stroke-width: 0px;
      }

      .cls-2 {
        fill: #faa22c;
      }

      .cls-3 {
        fill: #211e1f;
      }
    </style>
  </defs>
  <rect class="cls-2" width="1000" height="1000" rx="131.58" ry="131.58"/>
  <g>
    <path class="cls-3" d="M778.95,383.14v-162.09h-162.09v91.01l-116.88,116.88-116.83-116.83v-91.07h-162.09v162.09h86.96l118.89,118.89-114.83,114.83h-91.01v162.09h162.09v-87.01l116.83-116.83,116.88,116.88v86.96h162.09v-162.09h-91.07l-114.83-114.83,118.89-118.89h87.01ZM500.02,534.5l-.02-.02-145.95,145.95c1.77,5.4,2.75,11.14,2.75,17.13,0,30.41-24.66,55.07-55.07,55.07s-55.07-24.66-55.07-55.07,24.65-55.07,55.07-55.07c6.37,0,12.47,1.14,18.17,3.13l145.62-145.62-148.58-148.58c-4.83,1.39-9.92,2.17-15.2,2.17-30.41,0-55.07-24.66-55.07-55.07s24.65-55.07,55.07-55.07,55.07,24.66,55.07,55.07c0,7.06-1.38,13.79-3.8,20l181.5,181.5-34.48,34.48Z"/>
    <path class="cls-1" d="M500.02,534.5l34.48-34.48-181.5-181.5c2.42-6.21,3.8-12.94,3.8-20,0-30.41-24.66-55.07-55.07-55.07s-55.07,24.66-55.07,55.07,24.65,55.07,55.07,55.07c5.28,0,10.37-.79,15.2-2.17l148.58,148.58-145.62,145.62c-5.69-1.99-11.79-3.13-18.17-3.13-30.41,0-55.07,24.66-55.07,55.07s24.65,55.07,55.07,55.07,55.07-24.66,55.07-55.07c0-5.99-.99-11.73-2.75-17.13l145.95-145.95.02.02Z"/>
  </g>
</svg>